<mxfile host="app.diagrams.net" modified="2021-09-24T15:08:23.901Z" agent="5.0 (Windows NT 10.0; Win64; x64) AppleWebKit/537.36 (KHTML, like Gecko) Chrome/93.0.4577.82 Safari/537.36" etag="vOJa3rzQNMRfYmtS3uGV" version="15.3.0" type="github">
  <diagram name="Page-1" id="13e1069c-82ec-6db2-03f1-153e76fe0fe0">
    <mxGraphModel dx="1678" dy="722" grid="0" gridSize="10" guides="1" tooltips="1" connect="1" arrows="1" fold="1" page="0" pageScale="1" pageWidth="1100" pageHeight="850" background="none" math="0" shadow="0">
      <root>
        <mxCell id="0" />
        <mxCell id="1" parent="0" />
        <mxCell id="7baba1c4bc27f4b0-2" value="Interface ajout score" style="shape=umlLifeline;perimeter=lifelinePerimeter;whiteSpace=wrap;html=1;container=1;collapsible=0;recursiveResize=0;outlineConnect=0;rounded=1;shadow=0;comic=0;labelBackgroundColor=none;strokeWidth=1;fontFamily=Verdana;fontSize=12;align=center;" parent="1" vertex="1">
          <mxGeometry x="240" y="80" width="100" height="583" as="geometry" />
        </mxCell>
        <mxCell id="nqzX_DB5HmNdj-aHYXm7-6" value="" style="html=1;points=[];perimeter=orthogonalPerimeter;" vertex="1" parent="7baba1c4bc27f4b0-2">
          <mxGeometry x="45" y="190" width="10" height="40" as="geometry" />
        </mxCell>
        <mxCell id="7baba1c4bc27f4b0-3" value="Controller" style="shape=umlLifeline;perimeter=lifelinePerimeter;whiteSpace=wrap;html=1;container=1;collapsible=0;recursiveResize=0;outlineConnect=0;rounded=1;shadow=0;comic=0;labelBackgroundColor=none;strokeWidth=1;fontFamily=Verdana;fontSize=12;align=center;size=40;" parent="1" vertex="1">
          <mxGeometry x="380" y="80" width="100" height="582" as="geometry" />
        </mxCell>
        <mxCell id="nqzX_DB5HmNdj-aHYXm7-1" value="" style="html=1;points=[];perimeter=orthogonalPerimeter;" vertex="1" parent="7baba1c4bc27f4b0-3">
          <mxGeometry x="45" y="100" width="10" height="40" as="geometry" />
        </mxCell>
        <mxCell id="nqzX_DB5HmNdj-aHYXm7-2" value="2 : Affichage interface ajout" style="html=1;verticalAlign=bottom;endArrow=open;dashed=1;endSize=8;" edge="1" parent="7baba1c4bc27f4b0-3" target="7baba1c4bc27f4b0-2">
          <mxGeometry relative="1" as="geometry">
            <mxPoint x="45" y="140" as="sourcePoint" />
            <mxPoint x="-35" y="140" as="targetPoint" />
            <Array as="points">
              <mxPoint x="5" y="140" />
            </Array>
          </mxGeometry>
        </mxCell>
        <mxCell id="nqzX_DB5HmNdj-aHYXm7-26" value="" style="html=1;points=[];perimeter=orthogonalPerimeter;" vertex="1" parent="7baba1c4bc27f4b0-3">
          <mxGeometry x="45" y="228" width="10" height="40" as="geometry" />
        </mxCell>
        <mxCell id="7baba1c4bc27f4b0-4" value="Entité User" style="shape=umlLifeline;perimeter=lifelinePerimeter;whiteSpace=wrap;html=1;container=1;collapsible=0;recursiveResize=0;outlineConnect=0;rounded=1;shadow=0;comic=0;labelBackgroundColor=none;strokeWidth=1;fontFamily=Verdana;fontSize=12;align=center;" parent="1" vertex="1">
          <mxGeometry x="520" y="80" width="100" height="586" as="geometry" />
        </mxCell>
        <mxCell id="nqzX_DB5HmNdj-aHYXm7-30" value="6 : afficher message user déjà existant" style="html=1;verticalAlign=bottom;endArrow=open;dashed=1;endSize=8;" edge="1" parent="7baba1c4bc27f4b0-4">
          <mxGeometry relative="1" as="geometry">
            <mxPoint x="47" y="472" as="sourcePoint" />
            <mxPoint x="-232.16666666666674" y="472" as="targetPoint" />
          </mxGeometry>
        </mxCell>
        <mxCell id="nqzX_DB5HmNdj-aHYXm7-29" value="" style="html=1;points=[];perimeter=orthogonalPerimeter;" vertex="1" parent="7baba1c4bc27f4b0-4">
          <mxGeometry x="44" y="541.67" width="10" height="30" as="geometry" />
        </mxCell>
        <mxCell id="nqzX_DB5HmNdj-aHYXm7-43" value="" style="html=1;points=[];perimeter=orthogonalPerimeter;" vertex="1" parent="7baba1c4bc27f4b0-4">
          <mxGeometry x="45" y="384" width="10" height="26" as="geometry" />
        </mxCell>
        <mxCell id="7baba1c4bc27f4b0-8" value="User" style="shape=umlLifeline;perimeter=lifelinePerimeter;whiteSpace=wrap;html=1;container=1;collapsible=0;recursiveResize=0;outlineConnect=0;rounded=1;shadow=0;comic=0;labelBackgroundColor=none;strokeWidth=1;fontFamily=Verdana;fontSize=12;align=center;" parent="1" vertex="1">
          <mxGeometry x="100" y="80" width="100" height="577" as="geometry" />
        </mxCell>
        <mxCell id="7baba1c4bc27f4b0-11" value="1 : Demande interface Ajout" style="html=1;verticalAlign=bottom;endArrow=block;labelBackgroundColor=none;fontFamily=Verdana;fontSize=12;edgeStyle=elbowEdgeStyle;elbow=vertical;" parent="1" target="7baba1c4bc27f4b0-3" edge="1">
          <mxGeometry relative="1" as="geometry">
            <mxPoint x="150" y="180" as="sourcePoint" />
            <mxPoint x="285" y="180.0000000000001" as="targetPoint" />
          </mxGeometry>
        </mxCell>
        <mxCell id="nqzX_DB5HmNdj-aHYXm7-5" value="3 : saisir Pseudo" style="html=1;verticalAlign=bottom;endArrow=block;" edge="1" parent="1" source="7baba1c4bc27f4b0-8" target="7baba1c4bc27f4b0-2">
          <mxGeometry width="80" relative="1" as="geometry">
            <mxPoint x="160" y="280" as="sourcePoint" />
            <mxPoint x="240" y="280" as="targetPoint" />
            <Array as="points">
              <mxPoint x="180" y="270" />
              <mxPoint x="250" y="270" />
            </Array>
          </mxGeometry>
        </mxCell>
        <mxCell id="nqzX_DB5HmNdj-aHYXm7-16" value="frame" style="shape=umlFrame;whiteSpace=wrap;html=1;" vertex="1" parent="1">
          <mxGeometry x="43" y="51" width="627" height="630" as="geometry" />
        </mxCell>
        <mxCell id="nqzX_DB5HmNdj-aHYXm7-7" value="4 : vérification" style="html=1;verticalAlign=bottom;endArrow=block;" edge="1" parent="1" source="7baba1c4bc27f4b0-2" target="7baba1c4bc27f4b0-3">
          <mxGeometry width="80" relative="1" as="geometry">
            <mxPoint x="284.99666666666667" y="310" as="sourcePoint" />
            <mxPoint x="424.83000000000015" y="310" as="targetPoint" />
            <Array as="points">
              <mxPoint x="385.33000000000004" y="310" />
            </Array>
          </mxGeometry>
        </mxCell>
        <mxCell id="nqzX_DB5HmNdj-aHYXm7-19" value="5 : vérification existant" style="html=1;verticalAlign=bottom;endArrow=block;" edge="1" parent="1" target="7baba1c4bc27f4b0-4">
          <mxGeometry x="0.3239" width="80" relative="1" as="geometry">
            <mxPoint x="498" y="465" as="sourcePoint" />
            <mxPoint x="696" y="361" as="targetPoint" />
            <Array as="points">
              <mxPoint x="428" y="465" />
              <mxPoint x="474" y="465" />
            </Array>
            <mxPoint as="offset" />
          </mxGeometry>
        </mxCell>
        <mxCell id="nqzX_DB5HmNdj-aHYXm7-28" value="User existant" style="verticalAlign=top;align=left;spacingTop=8;spacingLeft=2;spacingRight=12;shape=cube;size=10;direction=south;fontStyle=4;html=1;" vertex="1" parent="1">
          <mxGeometry x="169" y="501" width="422" height="32" as="geometry" />
        </mxCell>
        <mxCell id="nqzX_DB5HmNdj-aHYXm7-31" value="User inexistant" style="verticalAlign=top;align=left;spacingTop=8;spacingLeft=2;spacingRight=12;shape=cube;size=10;direction=south;fontStyle=4;html=1;" vertex="1" parent="1">
          <mxGeometry x="170" y="568" width="420" height="32" as="geometry" />
        </mxCell>
        <mxCell id="nqzX_DB5HmNdj-aHYXm7-34" value="7 : insérer données user" style="html=1;verticalAlign=bottom;endArrow=block;" edge="1" parent="1">
          <mxGeometry width="80" relative="1" as="geometry">
            <mxPoint x="428.5" y="621" as="sourcePoint" />
            <mxPoint x="568.5" y="621" as="targetPoint" />
            <Array as="points">
              <mxPoint x="464.5" y="621" />
              <mxPoint x="476.5" y="621" />
              <mxPoint x="501.5" y="621" />
            </Array>
          </mxGeometry>
        </mxCell>
        <mxCell id="nqzX_DB5HmNdj-aHYXm7-35" value="8 : affiche message user ajouté" style="html=1;verticalAlign=bottom;endArrow=open;dashed=1;endSize=8;" edge="1" parent="1">
          <mxGeometry relative="1" as="geometry">
            <mxPoint x="428.5" y="656" as="sourcePoint" />
            <mxPoint x="288.5" y="656" as="targetPoint" />
            <Array as="points">
              <mxPoint x="401" y="656" />
            </Array>
          </mxGeometry>
        </mxCell>
        <mxCell id="nqzX_DB5HmNdj-aHYXm7-36" value="format non conforme" style="verticalAlign=top;align=left;spacingTop=8;spacingLeft=2;spacingRight=12;shape=cube;size=10;direction=south;fontStyle=4;html=1;" vertex="1" parent="1">
          <mxGeometry x="171" y="352" width="421" height="33" as="geometry" />
        </mxCell>
        <mxCell id="nqzX_DB5HmNdj-aHYXm7-37" value="6 : afficher message format non valide" style="html=1;verticalAlign=bottom;endArrow=open;dashed=1;endSize=8;" edge="1" parent="1" target="7baba1c4bc27f4b0-2">
          <mxGeometry relative="1" as="geometry">
            <mxPoint x="430" y="407" as="sourcePoint" />
            <mxPoint x="106.00333333333325" y="438.99999999999994" as="targetPoint" />
            <Array as="points">
              <mxPoint x="317" y="407" />
            </Array>
          </mxGeometry>
        </mxCell>
        <mxCell id="nqzX_DB5HmNdj-aHYXm7-38" value="format non conforme" style="verticalAlign=top;align=left;spacingTop=8;spacingLeft=2;spacingRight=12;shape=cube;size=10;direction=south;fontStyle=4;html=1;" vertex="1" parent="1">
          <mxGeometry x="171" y="352" width="421" height="33" as="geometry" />
        </mxCell>
        <mxCell id="nqzX_DB5HmNdj-aHYXm7-39" value="format conforme" style="verticalAlign=top;align=left;spacingTop=8;spacingLeft=2;spacingRight=12;shape=cube;size=10;direction=south;fontStyle=4;html=1;" vertex="1" parent="1">
          <mxGeometry x="171" y="414" width="420" height="33" as="geometry" />
        </mxCell>
      </root>
    </mxGraphModel>
  </diagram>
</mxfile>
